<svg xmlns="http://www.w3.org/2000/svg" version="1.1" xmlns:xlink="http://www.w3.org/1999/xlink" xmlns:svgjs="http://svgjs.dev/svgjs" width="1440" height="560" preserveAspectRatio="none" viewBox="0 0 1440 560"><g mask="url(&quot;#SvgjsMask1002&quot;)" fill="none"><rect width="1440" height="560" x="0" y="0" fill="url(&quot;#SvgjsLinearGradient1003&quot;)"></rect><path d="M0 0L189 0L0 261.5z" fill="rgba(255, 255, 255, .1)"></path><path d="M0 261.5L189 0L691.15 0L0 328.65999999999997z" fill="rgba(255, 255, 255, .075)"></path><path d="M0 328.65999999999997L691.15 0L919.37 0L0 383.83z" fill="rgba(255, 255, 255, .05)"></path><path d="M0 383.83L919.37 0L1082.58 0L0 429.88z" fill="rgba(255, 255, 255, .025)"></path><path d="M1440 560L1305.06 560L1440 556.95z" fill="rgba(0, 0, 0, .1)"></path><path d="M1440 556.95L1305.06 560L728.3499999999999 560L1440 249.74000000000007z" fill="rgba(0, 0, 0, .075)"></path><path d="M1440 249.74L728.3499999999999 560L684.43 560L1440 107.03z" fill="rgba(0, 0, 0, .05)"></path><path d="M1440 107.02999999999997L684.43 560L463.86999999999995 560L1440 77.43999999999997z" fill="rgba(0, 0, 0, .025)"></path></g><defs><mask id="SvgjsMask1002"><rect width="1440" height="560" fill="#ffffff"></rect></mask><linearGradient x1="15.28%" y1="-39.29%" x2="84.72%" y2="139.29%" gradientUnits="userSpaceOnUse" id="SvgjsLinearGradient1003"><stop stop-color="#0e2a47" offset="0"></stop><stop stop-color="#00459e" offset="1"></stop></linearGradient></defs></svg>